<svg xmlns="http://www.w3.org/2000/svg" xmlns:xlink="http://www.w3.org/1999/xlink" width="500" zoomAndPan="magnify" viewBox="0 0 375 374.999991" height="500" preserveAspectRatio="xMidYMid meet" version="1.0"><defs><g/><clipPath id="4988863ab4"><path d="M 59.746094 63.429688 L 343.148438 63.429688 L 343.148438 346.832031 L 59.746094 346.832031 Z M 59.746094 63.429688 " clip-rule="nonzero"/></clipPath><clipPath id="60c06222f3"><path d="M 201.449219 63.429688 C 123.1875 63.429688 59.746094 126.871094 59.746094 205.132812 C 59.746094 283.390625 123.1875 346.832031 201.449219 346.832031 C 279.707031 346.832031 343.148438 283.390625 343.148438 205.132812 C 343.148438 126.871094 279.707031 63.429688 201.449219 63.429688 Z M 201.449219 63.429688 " clip-rule="nonzero"/></clipPath><clipPath id="2a9e18d456"><path d="M 0.746094 0.429688 L 284.148438 0.429688 L 284.148438 283.832031 L 0.746094 283.832031 Z M 0.746094 0.429688 " clip-rule="nonzero"/></clipPath><clipPath id="96b5f7af15"><path d="M 142.449219 0.429688 C 64.1875 0.429688 0.746094 63.871094 0.746094 142.132812 C 0.746094 220.390625 64.1875 283.832031 142.449219 283.832031 C 220.707031 283.832031 284.148438 220.390625 284.148438 142.132812 C 284.148438 63.871094 220.707031 0.429688 142.449219 0.429688 Z M 142.449219 0.429688 " clip-rule="nonzero"/></clipPath><clipPath id="55f87ed983"><rect x="0" width="285" y="0" height="284"/></clipPath><clipPath id="3ae6e29481"><rect x="0" width="67" y="0" height="259"/></clipPath><clipPath id="3488e521b3"><rect x="0" width="140" y="0" height="259"/></clipPath></defs><g clip-path="url(#4988863ab4)"><g clip-path="url(#60c06222f3)"><g transform="matrix(1, 0, 0, 1, 59, 63)"><g clip-path="url(#55f87ed983)"><g clip-path="url(#2a9e18d456)"><g clip-path="url(#96b5f7af15)"><path fill="#0189c7" d="M 0.746094 0.429688 L 284.148438 0.429688 L 284.148438 283.832031 L 0.746094 283.832031 Z M 0.746094 0.429688 " fill-opacity="1" fill-rule="nonzero"/></g></g></g></g></g></g><g transform="matrix(1, 0, 0, 1, 220, 75)"><g clip-path="url(#3ae6e29481)"><g fill="#ffffff" fill-opacity="1"><g transform="translate(2.160023, 202.776681)"><g><path d="M 58.203125 -3.40625 L 58.203125 0 L 4.703125 0 L 4.703125 -3.40625 L 9.109375 -3.40625 C 14.273438 -3.40625 18.019531 -4.910156 20.34375 -7.921875 C 21.820312 -9.878906 22.5625 -14.601562 22.5625 -22.09375 L 22.5625 -102.765625 C 22.5625 -109.085938 22.160156 -113.265625 21.359375 -115.296875 C 20.742188 -116.828125 19.488281 -118.144531 17.59375 -119.25 C 14.882812 -120.726562 12.054688 -121.46875 9.109375 -121.46875 L 4.703125 -121.46875 L 4.703125 -124.875 L 58.203125 -124.875 L 58.203125 -121.46875 L 53.6875 -121.46875 C 48.59375 -121.46875 44.878906 -119.960938 42.546875 -116.953125 C 41.003906 -114.984375 40.234375 -110.253906 40.234375 -102.765625 L 40.234375 -22.09375 C 40.234375 -15.769531 40.632812 -11.597656 41.4375 -9.578125 C 42.050781 -8.046875 43.34375 -6.726562 45.3125 -5.625 C 47.945312 -4.144531 50.738281 -3.40625 53.6875 -3.40625 Z M 58.203125 -3.40625 "/></g></g></g></g></g><path stroke-linecap="butt" transform="matrix(0, 0.75, -0.75, 0, 254.326716, 145.131626)" fill="none" stroke-linejoin="miter" d="M 7.501582 0.998121 L 152.501591 0.998121 " stroke="#0189c7" stroke-width="2" stroke-opacity="1" stroke-miterlimit="4"/><path stroke-linecap="round" transform="matrix(0, 0.75, -0.75, 0, 254.326716, 145.131626)" fill="none" stroke-linejoin="round" d="M 1.001581 0.998121 C 1.001581 -0.658129 2.345332 -2.001879 4.001582 -2.001879 C 5.657832 -2.001879 7.001582 -0.658129 7.001582 0.998121 C 7.001582 2.654371 5.657832 3.998121 4.001582 3.998121 C 2.345332 3.998121 1.001581 2.654371 1.001581 0.998121 " stroke="#0189c7" stroke-width="2" stroke-opacity="1" stroke-miterlimit="4"/><path stroke-linecap="round" transform="matrix(0, 0.75, -0.75, 0, 254.326716, 145.131626)" fill="none" stroke-linejoin="round" d="M 159.001592 0.998121 C 159.001592 2.654371 157.657842 3.998121 156.001592 3.998121 C 154.345342 3.998121 153.001591 2.654371 153.001591 0.998121 C 153.001591 -0.658129 154.345342 -2.001879 156.001592 -2.001879 C 157.657842 -2.001879 159.001592 -0.658129 159.001592 0.998121 " stroke="#0189c7" stroke-width="2" stroke-opacity="1" stroke-miterlimit="4"/><g transform="matrix(1, 0, 0, 1, 110, 75)"><g clip-path="url(#3488e521b3)"><g fill="#ffffff" fill-opacity="1"><g transform="translate(0.990498, 202.776681)"><g><path d="M 56.359375 -69.25 L 102.40625 -23.484375 C 109.957031 -15.929688 116.398438 -10.785156 121.734375 -8.046875 C 127.078125 -5.316406 132.421875 -3.769531 137.765625 -3.40625 L 137.765625 0 L 78.359375 0 L 78.359375 -3.40625 C 81.921875 -3.40625 84.484375 -4.003906 86.046875 -5.203125 C 87.617188 -6.398438 88.40625 -7.734375 88.40625 -9.203125 C 88.40625 -10.679688 88.113281 -12.003906 87.53125 -13.171875 C 86.945312 -14.335938 85.023438 -16.515625 81.765625 -19.703125 L 38.671875 -62.34375 L 38.671875 -22.09375 C 38.671875 -15.769531 39.070312 -11.597656 39.875 -9.578125 C 40.488281 -8.046875 41.773438 -6.726562 43.734375 -5.625 C 46.378906 -4.144531 49.175781 -3.40625 52.125 -3.40625 L 56.359375 -3.40625 L 56.359375 0 L 3.125 0 L 3.125 -3.40625 L 7.546875 -3.40625 C 12.703125 -3.40625 16.445312 -4.910156 18.78125 -7.921875 C 20.257812 -9.878906 21 -14.601562 21 -22.09375 L 21 -102.765625 C 21 -109.085938 20.597656 -113.296875 19.796875 -115.390625 C 19.179688 -116.859375 17.921875 -118.144531 16.015625 -119.25 C 13.316406 -120.726562 10.492188 -121.46875 7.546875 -121.46875 L 3.125 -121.46875 L 3.125 -124.875 L 56.359375 -124.875 L 56.359375 -121.46875 L 52.125 -121.46875 C 49.238281 -121.46875 46.441406 -120.757812 43.734375 -119.34375 C 41.835938 -118.363281 40.519531 -116.890625 39.78125 -114.921875 C 39.039062 -112.960938 38.671875 -108.910156 38.671875 -102.765625 L 38.671875 -64.546875 C 39.898438 -65.710938 44.109375 -69.613281 51.296875 -76.25 C 69.523438 -92.945312 80.539062 -104.085938 84.34375 -109.671875 C 86.007812 -112.128906 86.84375 -114.28125 86.84375 -116.125 C 86.84375 -117.53125 86.195312 -118.769531 84.90625 -119.84375 C 83.613281 -120.925781 81.429688 -121.46875 78.359375 -121.46875 L 75.515625 -121.46875 L 75.515625 -124.875 L 121.375 -124.875 L 121.375 -121.46875 C 118.664062 -121.40625 116.207031 -121.035156 114 -120.359375 C 111.789062 -119.679688 109.085938 -118.375 105.890625 -116.4375 C 102.703125 -114.507812 98.773438 -111.394531 94.109375 -107.09375 C 92.765625 -105.863281 86.535156 -99.570312 75.421875 -88.21875 Z M 56.359375 -69.25 "/></g></g></g></g></g><path stroke-linecap="butt" transform="matrix(0, 0.75, -0.75, 0, 140.933609, 145.131626)" fill="none" stroke-linejoin="miter" d="M 7.501582 1.00002 L 152.501591 1.00002 " stroke="#0189c7" stroke-width="2" stroke-opacity="1" stroke-miterlimit="4"/><path stroke-linecap="round" transform="matrix(0, 0.75, -0.75, 0, 140.933609, 145.131626)" fill="none" stroke-linejoin="round" d="M 1.001581 1.00002 C 1.001581 -0.65623 2.345332 -1.99998 4.001582 -1.99998 C 5.657832 -1.99998 7.001582 -0.65623 7.001582 1.00002 C 7.001582 2.65627 5.657832 4.00002 4.001582 4.00002 C 2.345332 4.00002 1.001581 2.65627 1.001581 1.00002 " stroke="#0189c7" stroke-width="2" stroke-opacity="1" stroke-miterlimit="4"/><path stroke-linecap="round" transform="matrix(0, 0.75, -0.75, 0, 140.933609, 145.131626)" fill="none" stroke-linejoin="round" d="M 159.001592 1.00002 C 159.001592 2.65627 157.657842 4.00002 156.001592 4.00002 C 154.345342 4.00002 153.001591 2.65627 153.001591 1.00002 C 153.001591 -0.65623 154.345342 -1.99998 156.001592 -1.99998 C 157.657842 -1.99998 159.001592 -0.65623 159.001592 1.00002 " stroke="#0189c7" stroke-width="2" stroke-opacity="1" stroke-miterlimit="4"/><path stroke-linecap="butt" transform="matrix(-0.526904, -0.533734, 0.533734, -0.526904, 221.671982, 265.656047)" fill="none" stroke-linejoin="miter" d="M 7.501107 1.001041 L 112.416568 0.999457 " stroke="#0189c7" stroke-width="2" stroke-opacity="1" stroke-miterlimit="4"/><path stroke-linecap="round" transform="matrix(-0.526904, -0.533734, 0.533734, -0.526904, 221.671982, 265.656047)" fill="none" stroke-linejoin="round" d="M 1.000754 1.002386 C 1.001107 -0.658616 2.340417 -2.000458 4.001419 -2.000105 C 5.655054 -1.999704 7.000603 -0.656735 7.000203 0.996901 C 6.999849 2.657902 5.65688 4.003451 3.999538 3.999391 C 2.342243 4.002697 1.000353 2.656021 1.000754 1.002386 " stroke="#0189c7" stroke-width="2" stroke-opacity="1" stroke-miterlimit="4"/><path stroke-linecap="butt" transform="matrix(0.533399, -0.527243, 0.527243, 0.533399, 162.452089, 197.759195)" fill="none" stroke-linejoin="miter" d="M 0.000726343 1.001421 L 91.344263 1.001628 " stroke="#0189c7" stroke-width="2" stroke-opacity="1" stroke-miterlimit="4"/><path stroke-linecap="round" transform="matrix(0.533399, -0.527243, 0.527243, 0.533399, 162.452089, 197.759195)" fill="none" stroke-linejoin="round" d="M 97.844572 0.997048 C 97.843163 2.658049 96.503001 3.99904 94.845705 4.001293 C 93.184704 3.999884 91.847374 2.656018 91.845121 0.998721 C 91.842869 -0.658575 93.190397 -1.999609 94.844032 -1.998158 C 96.501328 -2.000411 97.846024 -0.656587 97.844572 0.997048 " stroke="#0189c7" stroke-width="2" stroke-opacity="1" stroke-miterlimit="4"/><path stroke-linecap="butt" transform="matrix(0.749876, 0.0136361, -0.0136361, 0.749876, 162.806785, 200.257194)" fill="none" stroke-linejoin="miter" d="M 0.000923535 4.501552 L 85.249335 4.498481 " stroke="#ffffff" stroke-width="9" stroke-opacity="1" stroke-miterlimit="4"/><path stroke-linecap="round" transform="matrix(0.749876, 0.0136361, -0.0136361, 0.749876, 162.806785, 200.257194)" fill-opacity="1" fill="#ffffff" fill-rule="nonzero" stroke-linejoin="round" d="M 87.504324 -8.997875 L 105.502712 4.500035 L 87.50042 18.001451 Z M 87.504324 -8.997875 " stroke="#ffffff" stroke-width="9" stroke-opacity="1" stroke-miterlimit="4"/></svg>